<svg width="17" height="17" viewBox="0 0 17 17" fill="none" xmlns="http://www.w3.org/2000/svg">
<g clip-path="url(#clip0)">
<path d="M8.49959 5.26126C6.71349 5.26126 5.26047 6.71429 5.26047 8.50025C5.26047 10.2863 6.71349 11.7394 8.49959 11.7394C10.2856 11.7394 11.7386 10.2863 11.7386 8.50025C11.7386 6.71429 10.2856 5.26126 8.49959 5.26126ZM10.4226 7.89027L8.10219 10.2107C8.00478 10.3081 7.87703 10.3569 7.7494 10.3569C7.62178 10.3569 7.49416 10.3083 7.39675 10.2107L6.50999 9.32397C6.31519 9.12929 6.31519 8.81348 6.50999 8.61867C6.70467 8.42386 7.02049 8.42386 7.2153 8.61867L7.7494 9.15277L9.71734 7.18497C9.91202 6.99016 10.2278 6.99016 10.4226 7.18497C10.6175 7.37965 10.6175 7.69546 10.4226 7.89027Z" fill="#434242" fill-opacity="0.45"/>
<path d="M15.7211 4.61155L15.7206 4.59832C15.7132 4.43503 15.7083 4.26227 15.7053 4.07006C15.6914 3.13272 14.9463 2.35738 14.0088 2.30498C12.0542 2.1959 10.5422 1.55856 9.25026 0.29931L9.23924 0.288804C8.81784 -0.0975702 8.18219 -0.0975702 7.76066 0.288804L7.74964 0.29931C6.45771 1.55856 4.94567 2.1959 2.9911 2.30511C2.05376 2.35738 1.30851 3.13272 1.29463 4.07019C1.29178 4.26111 1.28672 4.43387 1.27933 4.59832L1.27855 4.62906C1.24055 6.62215 1.19334 9.10265 2.02315 11.3541C2.47944 12.5922 3.17048 13.6685 4.07694 14.5531C5.10935 15.5606 6.4616 16.3605 8.09607 16.9304C8.14924 16.9489 8.2045 16.964 8.26079 16.9753C8.34016 16.9911 8.42006 16.999 8.49995 16.999C8.57985 16.999 8.65987 16.9911 8.73912 16.9753C8.79541 16.964 8.85105 16.9488 8.90448 16.9301C10.537 16.3592 11.8878 15.559 12.9193 14.5516C13.8254 13.6666 14.5164 12.5901 14.9731 11.3518C15.806 9.09357 15.759 6.6084 15.7211 4.61155ZM8.49969 12.7359C6.16355 12.7359 4.26306 10.8354 4.26306 8.49929C4.26306 6.16315 6.16355 4.26266 8.49969 4.26266C10.8357 4.26266 12.7363 6.16315 12.7363 8.49929C12.7363 10.8354 10.8357 12.7359 8.49969 12.7359Z" fill="#434242" fill-opacity="0.45"/>
</g>
<defs>
<clipPath id="clip0">
<rect width="17" height="17" fill="white"/>
</clipPath>
</defs>
</svg>
