<svg width="50" height="26" viewBox="0 0 50 26" fill="none" xmlns="http://www.w3.org/2000/svg">
<path d="M0.572853 14.3826C0.573437 14.3832 0.573925 14.3839 0.574608 14.3844L10.7801 24.5407C11.5446 25.3015 12.7812 25.2987 13.5423 24.5341C14.3032 23.7695 14.3003 22.5329 13.5357 21.7719L6.68379 14.9532L48.0469 14.9532C49.1256 14.9532 50 14.0788 50 13.0001C50 11.9214 49.1256 11.0469 48.0469 11.0469L6.68389 11.0469L13.5356 4.2282C14.3002 3.46726 14.3031 2.23064 13.5422 1.46609C12.7812 0.701344 11.5444 0.698708 10.78 1.45945L0.574512 11.6157C0.573925 11.6163 0.573437 11.617 0.572754 11.6176C-0.192188 12.381 -0.189747 13.6217 0.572853 14.3826Z" fill="#FDAF3A"/>
</svg>
