<svg width="50" height="26" viewBox="0 0 50 26" fill="none" xmlns="http://www.w3.org/2000/svg">
<path d="M0.572852 14.3825C0.573436 14.3831 0.573924 14.3837 0.574607 14.3843L10.7801 24.5406C11.5446 25.3014 12.7813 25.2986 13.5423 24.5339C14.3032 23.7694 14.3003 22.5328 13.5357 21.7718L6.68379 14.9531L48.0469 14.9531C49.1256 14.9531 50 14.0787 50 12.9999C50 11.9212 49.1256 11.0468 48.0469 11.0468L6.68389 11.0468L13.5356 4.22808C14.3002 3.46714 14.3031 2.23052 13.5422 1.46597C12.7811 0.701225 11.5444 0.698589 10.78 1.45933L0.574511 11.6156C0.573924 11.6162 0.573436 11.6168 0.572753 11.6174C-0.192189 12.3809 -0.189748 13.6215 0.572852 14.3825Z" fill="#434242" fill-opacity="0.2"/>
</svg>
