<svg width="43" height="43" viewBox="0 0 43 43" fill="none" xmlns="http://www.w3.org/2000/svg">
<path d="M30.9917 3.93106C28.4554 1.39599 25.0846 0 21.5 0C14.0984 0 8.07665 6.02168 8.07665 13.4233V29.5768C8.07665 36.9783 14.0984 43 21.5 43C28.9015 43 34.9233 36.9783 34.9233 29.5767V13.4233C34.9233 9.83869 33.5272 6.46789 30.9917 3.93106ZM32.6481 29.5767C32.6481 35.7238 27.6472 40.7249 21.5 40.7249C15.3527 40.7249 10.3518 35.7239 10.3518 29.5767V13.4233C10.3518 7.27607 15.3528 2.27514 21.5 2.27514C24.477 2.27514 27.2767 3.43462 29.383 5.53986C31.4886 7.64653 32.6481 10.4463 32.6481 13.4233V29.5767Z" fill="white"/>
<path d="M21.5011 7.05292C20.8728 7.05292 20.3635 7.5622 20.3635 8.19049V10.8638C20.3635 11.4921 20.8728 12.0014 21.5011 12.0014C22.1294 12.0014 22.6387 11.4921 22.6387 10.8638V8.19049C22.6387 7.5622 22.1293 7.05292 21.5011 7.05292Z" fill="white"/>
<path d="M21.5011 12.7739C20.8728 12.7739 20.3635 13.2832 20.3635 13.9115V14.248C20.3635 14.8763 20.8728 15.3856 21.5011 15.3856C22.1294 15.3856 22.6387 14.8763 22.6387 14.248V13.9115C22.6387 13.2832 22.1293 12.7739 21.5011 12.7739Z" fill="white"/>
</svg>
