<svg width="17" height="17" viewBox="0 0 17 17" fill="none" xmlns="http://www.w3.org/2000/svg">
<g clip-path="url(#clip0)">
<path d="M9.89791 12.4373L9.3476 12.078C9.30528 12.0504 9.27051 12.0127 9.24645 11.9682C9.22238 11.9238 9.20978 11.8741 9.2098 11.8236V1.51768C9.2098 1.43717 9.17782 1.35997 9.12089 1.30305C9.06397 1.24612 8.98676 1.21414 8.90626 1.21414C8.82576 1.21414 8.74855 1.24612 8.69163 1.30305C8.63471 1.35997 8.60273 1.43717 8.60273 1.51768V11.8236C8.60274 11.8741 8.59014 11.9238 8.56608 11.9682C8.54201 12.0127 8.50724 12.0504 8.46492 12.078L7.91461 12.4373C7.58517 12.6512 7.33369 12.9659 7.1977 13.3343C7.0617 13.7028 7.04848 14.1054 7.16001 14.482C7.27153 14.8586 7.50182 15.1891 7.81653 15.4241C8.13123 15.6591 8.51348 15.7861 8.90626 15.7861C9.29904 15.7861 9.68129 15.6591 9.996 15.4241C10.3107 15.1891 10.541 14.8586 10.6525 14.482C10.764 14.1054 10.7508 13.7028 10.6148 13.3343C10.4788 12.9659 10.2274 12.6512 9.89791 12.4373Z" fill="#434242" fill-opacity="0.45"/>
<path d="M10.5617 11.4205C10.5194 11.3929 10.4846 11.3552 10.4606 11.3108C10.4365 11.2664 10.4239 11.2167 10.4239 11.1661V1.51767C10.4239 1.11516 10.264 0.729135 9.97941 0.444516C9.69479 0.159897 9.30876 0 8.90625 0C8.50374 0 8.11771 0.159897 7.83309 0.444516C7.54848 0.729135 7.38858 1.11516 7.38858 1.51767V11.1661C7.38859 11.2167 7.37599 11.2664 7.35193 11.3108C7.32786 11.3552 7.29309 11.3929 7.25077 11.4205C6.70231 11.7774 6.28386 12.3019 6.0578 12.916C5.83174 13.5301 5.81016 14.2007 5.99629 14.8281C6.18242 15.4554 6.56629 16.0058 7.09068 16.3971C7.61507 16.7885 8.2519 17 8.90625 17C9.5606 17 10.1974 16.7885 10.7218 16.3971C11.2462 16.0058 11.6301 15.4554 11.8162 14.8281C12.0023 14.2007 11.9808 13.5301 11.7547 12.916C11.5286 12.3019 11.1102 11.7774 10.5617 11.4205ZM8.90625 16.3909C8.38333 16.3901 7.87461 16.2206 7.45579 15.9075C7.03696 15.5944 6.7304 15.1544 6.5817 14.6531C6.433 14.1518 6.45012 13.6158 6.6305 13.125C6.81088 12.6341 7.14489 12.2147 7.58284 11.9289L7.99565 11.6594V1.51767C7.99565 1.27617 8.09159 1.04455 8.26236 0.873779C8.43313 0.703008 8.66474 0.60707 8.90625 0.60707C9.14776 0.60707 9.37938 0.703008 9.55015 0.873779C9.72092 1.04455 9.81686 1.27617 9.81686 1.51767V11.6594L10.2297 11.9286C10.6678 12.2143 11.0019 12.6338 11.1824 13.1247C11.3628 13.6156 11.38 14.1516 11.2313 14.6531C11.0826 15.1545 10.7759 15.5945 10.357 15.9076C9.93809 16.2207 9.42926 16.3902 8.90625 16.3909Z" fill="#434242" fill-opacity="0.45"/>
</g>
<defs>
<clipPath id="clip0">
<rect width="17" height="17" fill="white"/>
</clipPath>
</defs>
</svg>
