<svg width="17" height="17" viewBox="0 0 17 17" fill="none" xmlns="http://www.w3.org/2000/svg">
<path d="M10.5193 14.8558V15.3525C10.5193 15.7477 10.2168 16.0765 9.82311 16.1325L9.69554 16.5837C9.62629 16.8286 9.39665 17 9.13057 17H7.86578C7.5997 17 7.37007 16.8286 7.30081 16.5837L7.17689 16.1325C6.77959 16.073 6.47706 15.7477 6.47706 15.349V14.8523C6.47706 14.5864 6.6994 14.373 6.97641 14.373H10.0199C10.297 14.3765 10.5193 14.5899 10.5193 14.8558ZM12.863 8.1607C12.863 9.29054 12.3964 10.3154 11.6383 11.0675C11.0624 11.6412 10.6906 12.3722 10.5667 13.1523C10.512 13.4881 10.2095 13.7364 9.85227 13.7364H7.14408C6.79052 13.7364 6.48435 13.4916 6.43332 13.1558C6.30575 12.3757 5.93032 11.6342 5.35442 11.064C4.61085 10.3224 4.14794 9.31502 4.13701 8.20617C4.11149 5.87654 6.04331 3.99115 8.47084 3.97366C10.8947 3.95617 12.863 5.83807 12.863 8.1607ZM8.99207 5.62469C8.99207 5.36584 8.77337 5.15247 8.5 5.15247C6.76501 5.15247 5.35077 6.50617 5.35077 8.17469C5.35077 8.43354 5.56947 8.64691 5.84284 8.64691C6.11256 8.64691 6.33491 8.43704 6.33491 8.17469C6.33491 7.02737 7.3081 6.09691 8.5 6.09691C8.77337 6.09691 8.99207 5.88704 8.99207 5.62469ZM8.5 2.59897C8.76972 2.59897 8.99207 2.38909 8.99207 2.12675V0.472222C8.99207 0.213374 8.77337 0 8.5 0C8.22663 0 8.00793 0.209877 8.00793 0.472222V2.12675C8.00793 2.38909 8.23027 2.59897 8.5 2.59897ZM2.70819 8.1572C2.70819 7.89835 2.48949 7.68498 2.21612 7.68498H0.492067C0.222341 7.68498 0 7.89486 0 8.1572C0 8.41605 0.218696 8.62942 0.492067 8.62942H2.21612C2.48949 8.62942 2.70819 8.41955 2.70819 8.1572ZM16.5079 7.68498H14.7839C14.5142 7.68498 14.2918 7.89486 14.2918 8.1572C14.2918 8.41605 14.5105 8.62942 14.7839 8.62942H16.5079C16.7777 8.62942 17 8.41955 17 8.1572C17 7.89835 16.7813 7.68498 16.5079 7.68498ZM3.71055 12.0889L2.48949 13.2607C2.29631 13.4461 2.29631 13.7434 2.48949 13.9288C2.58426 14.0198 2.71184 14.0652 2.83576 14.0652C2.95969 14.0652 3.08726 14.0198 3.18203 13.9288L4.40309 12.757C4.59627 12.5716 4.59627 12.2743 4.40309 12.0889C4.21355 11.9035 3.90009 11.9035 3.71055 12.0889ZM12.9432 4.36543C13.0671 4.36543 13.1947 4.31996 13.2895 4.22901L14.5105 3.0572C14.7037 2.87181 14.7037 2.57449 14.5105 2.38909C14.3173 2.2037 14.0075 2.2037 13.8143 2.38909L12.5933 3.56091C12.4001 3.7463 12.4001 4.04362 12.5933 4.22901C12.6917 4.31996 12.8156 4.36543 12.9432 4.36543ZM3.71055 4.22551C3.80532 4.31646 3.93289 4.36193 4.05682 4.36193C4.18075 4.36193 4.30832 4.31646 4.40309 4.22551C4.59627 4.04012 4.59627 3.7428 4.40309 3.55741L3.18203 2.3856C2.98885 2.20021 2.67903 2.20021 2.48585 2.3856C2.29267 2.57099 2.29267 2.86831 2.48585 3.0537L3.71055 4.22551ZM13.2895 12.0889C13.0963 11.9035 12.7864 11.9035 12.5933 12.0889C12.4001 12.2743 12.4001 12.5716 12.5933 12.757L13.8143 13.9288C13.9091 14.0198 14.0367 14.0652 14.1606 14.0652C14.2845 14.0652 14.4121 14.0198 14.5069 13.9288C14.7 13.7434 14.7 13.4461 14.5069 13.2607L13.2895 12.0889Z" fill="#FFE670"/>
</svg>
