<svg width="30" height="30" viewBox="0 0 30 30" fill="none" xmlns="http://www.w3.org/2000/svg">
<g clip-path="url(#clip0)">
<path d="M29.9354 23.2445C29.8505 22.9888 29.3107 22.6122 28.3162 22.1155C28.0468 21.9589 27.6629 21.7462 27.1662 21.4762C26.669 21.2063 26.2177 20.9576 25.8132 20.7303C25.4078 20.503 25.028 20.2829 24.6732 20.0701C24.6165 20.0275 24.4389 19.9034 24.1406 19.697C23.8421 19.4911 23.5903 19.3384 23.3839 19.2388C23.178 19.1397 22.9755 19.0899 22.7766 19.0899C22.4926 19.0899 22.1378 19.2924 21.7118 19.697C21.2859 20.102 20.8951 20.542 20.5402 21.0183C20.1852 21.4944 19.8087 21.9344 19.4114 22.3392C19.0135 22.7442 18.6865 22.9465 18.4311 22.9465C18.3029 22.9465 18.1431 22.9108 17.9515 22.8403C17.76 22.7693 17.6143 22.7085 17.5143 22.6594C17.4152 22.6094 17.2452 22.5103 17.0035 22.3606C16.7614 22.2115 16.6268 22.1297 16.5984 22.1155C14.6525 21.0357 12.9837 19.7999 11.5915 18.4083C10.1998 17.0159 8.96378 15.3472 7.8843 13.401C7.87012 13.3726 7.78825 13.2376 7.63922 12.9963C7.48997 12.7547 7.39049 12.5845 7.34079 12.4848C7.29109 12.3854 7.23071 12.2398 7.15982 12.048C7.08892 11.8563 7.05332 11.6966 7.05332 11.5686C7.05332 11.3131 7.25579 10.9862 7.66064 10.5885C8.06542 10.1909 8.50587 9.81438 8.98154 9.45953C9.45759 9.10467 9.89759 8.71392 10.3025 8.28795C10.7073 7.86176 10.9097 7.50683 10.9097 7.2228C10.9097 7.02407 10.86 6.82145 10.7607 6.61556C10.6613 6.40921 10.5086 6.15742 10.3025 5.85898C10.0964 5.5607 9.97215 5.38331 9.92946 5.32622C9.71662 4.97137 9.4967 4.59144 9.26916 4.18659C9.04162 3.78181 8.79326 3.33061 8.52326 2.83352C8.25348 2.33665 8.04057 1.95299 7.88415 1.68314C7.38728 0.689033 7.01094 0.149031 6.75519 0.0641048C6.65571 0.0214926 6.50646 0 6.3078 0C5.92407 0 5.42347 0.0708959 4.80563 0.213135C4.18756 0.355151 3.70122 0.504107 3.34607 0.6606C2.63584 0.958736 1.88308 1.82516 1.08755 3.25957C0.363143 4.5945 0.000976562 5.91578 0.000976562 7.22242C0.000976562 7.60563 0.0258274 7.97847 0.0755292 8.34101C0.125231 8.70318 0.214037 9.11161 0.342023 9.56624C0.469785 10.0207 0.572845 10.3583 0.650756 10.5782C0.728741 10.7982 0.874339 11.1923 1.08747 11.7607C1.30031 12.3289 1.4283 12.6767 1.47091 12.8045C1.968 14.1966 2.55748 15.4394 3.2392 16.5332C4.36085 18.3513 5.89153 20.2302 7.83034 22.1691C9.76923 24.108 11.6478 25.6386 13.466 26.7607C14.5596 27.4423 15.8028 28.0317 17.1947 28.5292C17.3226 28.5716 17.6705 28.6992 18.2385 28.9128C18.8067 29.1258 19.2009 29.2714 19.4209 29.3496C19.641 29.4278 19.9787 29.5309 20.4328 29.6589C20.8879 29.7869 21.2959 29.8757 21.6581 29.9257C22.0205 29.9748 22.3934 30.0001 22.7767 30.0001C24.0833 30.0001 25.4046 29.6377 26.7398 28.9134C28.174 28.1181 29.0402 27.3652 29.3385 26.6545C29.4954 26.2997 29.644 25.8132 29.786 25.1951C29.9284 24.5774 29.9992 24.0768 29.9992 23.6932C29.9996 23.4937 29.9782 23.3448 29.9354 23.2445Z" fill="white"/>
</g>
<defs>
<clipPath id="clip0">
<rect width="30" height="30" fill="white"/>
</clipPath>
</defs>
</svg>
