<svg width="17" height="17" viewBox="0 0 17 17" fill="none" xmlns="http://www.w3.org/2000/svg">
<g clip-path="url(#clip0)">
<path d="M9.89789 12.4373L9.34759 12.078C9.30526 12.0504 9.27049 12.0127 9.24643 11.9682C9.22237 11.9238 9.20977 11.8741 9.20978 11.8236V1.51768C9.20978 1.43717 9.1778 1.35997 9.12088 1.30305C9.06395 1.24612 8.98675 1.21414 8.90625 1.21414C8.82574 1.21414 8.74854 1.24612 8.69161 1.30305C8.63469 1.35997 8.60271 1.43717 8.60271 1.51768V11.8236C8.60272 11.8741 8.59012 11.9238 8.56606 11.9682C8.542 12.0127 8.50723 12.0504 8.46491 12.078L7.9146 12.4373C7.58515 12.6512 7.33368 12.9659 7.19768 13.3343C7.06169 13.7028 7.04847 14.1054 7.15999 14.482C7.27152 14.8586 7.50181 15.1891 7.81651 15.4241C8.13122 15.6591 8.51347 15.7861 8.90625 15.7861C9.29902 15.7861 9.68128 15.6591 9.99598 15.4241C10.3107 15.1891 10.541 14.8586 10.6525 14.482C10.764 14.1054 10.7508 13.7028 10.6148 13.3343C10.4788 12.9659 10.2273 12.6512 9.89789 12.4373Z" fill="#EE8082"/>
<path d="M10.5617 11.4205C10.5194 11.3929 10.4846 11.3552 10.4606 11.3108C10.4365 11.2664 10.4239 11.2167 10.4239 11.1661V1.51767C10.4239 1.11516 10.264 0.729135 9.9794 0.444516C9.69478 0.159897 9.30876 0 8.90624 0C8.50373 0 8.11771 0.159897 7.83309 0.444516C7.54847 0.729135 7.38857 1.11516 7.38857 1.51767V11.1661C7.38858 11.2167 7.37598 11.2664 7.35192 11.3108C7.32786 11.3552 7.29309 11.3929 7.25076 11.4205C6.7023 11.7774 6.28386 12.3019 6.05779 12.916C5.83173 13.5301 5.81015 14.2007 5.99628 14.8281C6.18241 15.4554 6.56628 16.0058 7.09067 16.3971C7.61506 16.7885 8.25189 17 8.90624 17C9.5606 17 10.1974 16.7885 10.7218 16.3971C11.2462 16.0058 11.6301 15.4554 11.8162 14.8281C12.0023 14.2007 11.9808 13.5301 11.7547 12.916C11.5286 12.3019 11.1102 11.7774 10.5617 11.4205ZM8.90624 16.3909C8.38332 16.3901 7.87461 16.2206 7.45578 15.9075C7.03695 15.5944 6.73039 15.1544 6.58169 14.6531C6.433 14.1518 6.45011 13.6158 6.63049 13.125C6.81087 12.6341 7.14488 12.2147 7.58283 11.9289L7.99564 11.6594V1.51767C7.99564 1.27617 8.09158 1.04455 8.26235 0.873779C8.43312 0.703008 8.66474 0.60707 8.90624 0.60707C9.14775 0.60707 9.37937 0.703008 9.55014 0.873779C9.72091 1.04455 9.81685 1.27617 9.81685 1.51767V11.6594L10.2297 11.9286C10.6677 12.2143 11.0019 12.6338 11.1824 13.1247C11.3628 13.6156 11.38 14.1516 11.2313 14.6531C11.0826 15.1545 10.7759 15.5945 10.357 15.9076C9.93808 16.2207 9.42926 16.3902 8.90624 16.3909Z" fill="#EE8082"/>
</g>
<defs>
<clipPath id="clip0">
<rect width="17" height="17" fill="white"/>
</clipPath>
</defs>
</svg>
